<svg xmlns="http://www.w3.org/2000/svg" viewBox="0 0 40 40">
  <defs>
    <linearGradient id="b" x1="3" y1="2" x2="37" y2="38" gradientUnits="userSpaceOnUse">
      <stop stop-color="#16d6c4" />
      <stop offset="0.5" stop-color="#10b8a6" />
      <stop offset="1" stop-color="#0e8f6f" />
    </linearGradient>
    <radialGradient id="gl" cx="0.32" cy="0.18" r="0.85">
      <stop offset="0" stop-color="#ffffff" stop-opacity="0.5" />
      <stop offset="0.55" stop-color="#ffffff" stop-opacity="0" />
    </radialGradient>
    <filter id="sh" x="-30%" y="-30%" width="160%" height="160%">
      <feDropShadow dx="0" dy="0.8" stdDeviation="0.9" flood-color="#003b37" flood-opacity="0.45" />
    </filter>
  </defs>
  <rect width="40" height="40" rx="11" fill="url(#b)" />
  <rect width="40" height="40" rx="11" fill="url(#gl)" />
  <rect x="0.6" y="0.6" width="38.8" height="38.8" rx="10.6" fill="none" stroke="#ffffff" stroke-opacity="0.28" stroke-width="0.8" />
  <g filter="url(#sh)">
    <path d="M11 10.5h18a4.5 4.5 0 0 1 4.5 4.5v7a4.5 4.5 0 0 1-4.5 4.5h-9.5l-5.6 4.3a1 1 0 0 1-1.6-.8V26.5H11A4.5 4.5 0 0 1 6.5 22v-7A4.5 4.5 0 0 1 11 10.5Z" fill="#ffffff" />
  </g>
  <path d="M20 14.2c.5 3.4 1.1 4 4.5 4.5-3.4.5-4 1.1-4.5 4.5-.5-3.4-1.1-4-4.5-4.5 3.4-.5 4-1.1 4.5-4.5Z" fill="url(#b)" />
</svg>
