<svg xmlns="http://www.w3.org/2000/svg" viewBox="0 0 1200 630" width="1200" height="630">
  <defs>
    <linearGradient id="bg" x1="0" y1="0" x2="1200" y2="630" gradientUnits="userSpaceOnUse">
      <stop stop-color="#15294a" />
      <stop offset="1" stop-color="#284b7d" />
    </linearGradient>
    <linearGradient id="mark" x1="90" y1="86" x2="186" y2="182" gradientUnits="userSpaceOnUse">
      <stop stop-color="#356098" />
      <stop offset="1" stop-color="#e9853d" />
    </linearGradient>
    <radialGradient id="glow" cx="0.85" cy="0.08" r="0.7">
      <stop stop-color="#e9853d" stop-opacity="0.35" />
      <stop offset="1" stop-color="#e9853d" stop-opacity="0" />
    </radialGradient>
  </defs>

  <rect width="1200" height="630" fill="url(#bg)" />
  <rect width="1200" height="630" fill="url(#glow)" />

  <!-- logo mark — speech bubble (Varta = conversation) + spark -->
  <g transform="translate(90, 86)">
    <rect width="96" height="96" rx="26" fill="url(#mark)" />
    <g transform="scale(2.4)">
      <path d="M11 10.5h18a4.5 4.5 0 0 1 4.5 4.5v7a4.5 4.5 0 0 1-4.5 4.5h-9.5l-5.6 4.3a1 1 0 0 1-1.6-.8V26.5H11A4.5 4.5 0 0 1 6.5 22v-7A4.5 4.5 0 0 1 11 10.5Z" fill="#ffffff" />
      <path d="M20 14.2c.5 3.4 1.1 4 4.5 4.5-3.4.5-4 1.1-4.5 4.5-.5-3.4-1.1-4-4.5-4.5 3.4-.5 4-1.1 4.5-4.5Z" fill="#e9853d" />
    </g>
  </g>
  <text x="210" y="152" font-family="'Plus Jakarta Sans', Arial, sans-serif" font-size="52" font-weight="800" fill="#ffffff">
    Varta<tspan fill="#f0a868">Bot</tspan>
  </text>

  <!-- headline -->
  <text x="90" y="320" font-family="'Plus Jakarta Sans', Arial, sans-serif" font-size="76" font-weight="800" fill="#ffffff">
    No-code chatbots that
  </text>
  <text x="90" y="408" font-family="'Plus Jakarta Sans', Arial, sans-serif" font-size="76" font-weight="800" fill="#f0a868">
    capture more leads.
  </text>

  <!-- subline -->
  <text x="92" y="470" font-family="'Plus Jakarta Sans', Arial, sans-serif" font-size="32" font-weight="500" fill="#b8c5d6">
    Build, brand, and embed in minutes — no developer needed.
  </text>

  <!-- trust chips -->
  <g font-family="'Plus Jakarta Sans', Arial, sans-serif" font-size="26" font-weight="600" fill="#e8eef6">
    <g transform="translate(92, 528)">
      <circle cx="14" cy="14" r="14" fill="#e9853d" />
      <path d="M8 14l4 4 8-8" stroke="#ffffff" stroke-width="3" fill="none" stroke-linecap="round" stroke-linejoin="round" />
      <text x="40" y="22">14-day free trial</text>
    </g>
    <g transform="translate(360, 528)">
      <circle cx="14" cy="14" r="14" fill="#e9853d" />
      <path d="M8 14l4 4 8-8" stroke="#ffffff" stroke-width="3" fill="none" stroke-linecap="round" stroke-linejoin="round" />
      <text x="40" y="22">No credit card</text>
    </g>
    <g transform="translate(610, 528)">
      <circle cx="14" cy="14" r="14" fill="#e9853d" />
      <path d="M8 14l4 4 8-8" stroke="#ffffff" stroke-width="3" fill="none" stroke-linecap="round" stroke-linejoin="round" />
      <text x="40" y="22">GDPR-ready</text>
    </g>
  </g>
</svg>
